<svg width="19" height="21" viewBox="0 0 19 21" fill="none" xmlns="http://www.w3.org/2000/svg">
<path d="M1 4.63636H17.2M15.4 4.63636V17.3636C15.4 17.8458 15.2104 18.3083 14.8728 18.6493C14.5352 18.9903 14.0774 19.1818 13.6 19.1818H4.6C4.12261 19.1818 3.66477 18.9903 3.32721 18.6493C2.98964 18.3083 2.8 17.8458 2.8 17.3636V4.63636M5.5 4.63636V2.81818C5.5 2.33597 5.68964 1.87351 6.02721 1.53253C6.36477 1.19156 6.82261 1 7.3 1H10.9C11.3774 1 11.8352 1.19156 12.1728 1.53253C12.5104 1.87351 12.7 2.33597 12.7 2.81818V4.63636M7.3 9.18182V14.6364M10.9 9.18182V14.6364" stroke="#FF5252" stroke-width="2" stroke-linecap="round" stroke-linejoin="round"/>
</svg>
