<svg width="15" height="18" viewBox="0 0 15 18" fill="none" xmlns="http://www.w3.org/2000/svg">
<path d="M7.13106 0C7.35826 0.000271765 7.57678 0.0940907 7.74199 0.262288C7.90719 0.430485 8.00661 0.660365 8.01993 0.904958C8.03324 1.14955 7.95945 1.3904 7.81363 1.57829C7.6678 1.76617 7.46096 1.88692 7.23535 1.91586L7.13106 1.92259H2.67415C2.45582 1.92262 2.24509 2.00906 2.08194 2.16552C1.91878 2.32198 1.81455 2.53758 1.78901 2.77141L1.78277 2.88388V14.4194C1.78279 14.6549 1.86295 14.8821 2.00803 15.0581C2.15311 15.234 2.35303 15.3464 2.56986 15.374L2.67415 15.3807H6.68537C6.91257 15.381 7.13109 15.4748 7.2963 15.643C7.4615 15.8112 7.56092 16.0411 7.57423 16.2857C7.58755 16.5303 7.51376 16.7711 7.36793 16.959C7.22211 17.1469 7.01527 17.2676 6.78966 17.2966L6.68537 17.3033H2.67415C1.99205 17.3034 1.33572 17.0223 0.83945 16.5177C0.343176 16.013 0.0444733 15.3229 0.00445702 14.5886L4.15424e-09 14.4194V2.88388C-3.79923e-05 2.14829 0.260574 1.44049 0.728513 0.905289C1.19645 0.370092 1.83634 0.0479614 2.51726 0.00480659L2.67415 0H7.13106ZM12.2182 5.25252L14.739 7.97202C14.9061 8.15229 15 8.39675 15 8.65166C15 8.90656 14.9061 9.15102 14.739 9.33129L12.2182 12.0508C12.0509 12.231 11.8241 12.3323 11.5877 12.3322C11.3512 12.3321 11.1245 12.2307 10.9573 12.0503C10.7902 11.8699 10.6963 11.6253 10.6964 11.3703C10.6965 11.1153 10.7905 10.8708 10.9578 10.6906L11.957 9.61295H7.13106C6.89465 9.61295 6.66793 9.51167 6.50076 9.33139C6.33359 9.15112 6.23968 8.90661 6.23968 8.65166C6.23968 8.3967 6.33359 8.15219 6.50076 7.97192C6.66793 7.79164 6.89465 7.69036 7.13106 7.69036H11.957L10.9578 6.61275C10.7905 6.4325 10.6965 6.18798 10.6964 5.93297C10.6963 5.67797 10.7902 5.43337 10.9573 5.253C11.1245 5.07262 11.3512 4.97123 11.5877 4.97114C11.8241 4.97105 12.0509 5.07227 12.2182 5.25252Z" fill="white"/>
</svg>
