<svg width="39" height="42" viewBox="0 0 39 42" fill="none" xmlns="http://www.w3.org/2000/svg">
<path d="M20.3351 28.0079C19.7009 28.0104 19.083 28.204 18.566 28.5622C18.0489 28.9203 17.6579 29.4255 17.4465 30.0086H16.232C15.4159 30.0086 14.6331 29.6924 14.056 29.1296C13.4789 28.5668 13.1547 27.8034 13.1547 27.0075V25.0068C13.1547 24.7415 13.0466 24.487 12.8542 24.2994C12.6619 24.1118 12.4009 24.0064 12.1289 24.0064C11.8568 24.0064 11.5959 24.1118 11.4036 24.2994C11.2112 24.487 11.1031 24.7415 11.1031 25.0068V27.0075C11.1047 28.3336 11.6456 29.6049 12.6071 30.5426C13.5686 31.4802 14.8722 32.0077 16.232 32.0093H17.4465C17.6355 32.5267 17.9667 32.9834 18.4038 33.3296C18.841 33.6759 19.3673 33.8983 19.9253 33.9725C20.4833 34.0467 21.0515 33.97 21.5677 33.7506C22.084 33.5313 22.5285 33.1777 22.8527 32.7286C23.1769 32.2796 23.3683 31.7522 23.4059 31.2042C23.4436 30.6563 23.3261 30.1087 23.0662 29.6215C22.8064 29.1343 22.4142 28.726 21.9325 28.4415C21.4509 28.1569 20.8983 28.0069 20.3351 28.0079Z" fill="#B0B0B0"/>
<path d="M30.08 16.0036H29.5671V15.0032C29.5671 12.6154 28.5945 10.3254 26.8631 8.63698C25.1318 6.94855 22.7836 6 20.3351 6C17.8866 6 15.5384 6.94855 13.8071 8.63698C12.0758 10.3254 11.1031 12.6154 11.1031 15.0032V16.0036H10.5902C9.63804 16.0036 8.72485 16.3725 8.05155 17.0291C7.37826 17.6857 7 18.5762 7 19.5048V22.5059C7 23.4345 7.37826 24.325 8.05155 24.9816C8.72485 25.6383 9.63804 26.0071 10.5902 26.0071H13.1547C13.6988 26.0071 14.2206 25.7964 14.6053 25.4211C14.9901 25.0459 15.2062 24.537 15.2062 24.0064V18.0043C15.2062 17.4737 14.9901 16.9648 14.6053 16.5896C14.2206 16.2144 13.6988 16.0036 13.1547 16.0036V15.0032C13.1547 13.146 13.9112 11.3649 15.2578 10.0517C16.6044 8.73848 18.4308 8.00071 20.3351 8.00071C22.2395 8.00071 24.0659 8.73848 25.4125 10.0517C26.7591 11.3649 27.5156 13.146 27.5156 15.0032V16.0036C26.9715 16.0036 26.4497 16.2144 26.0649 16.5896C25.6802 16.9648 25.464 17.4737 25.464 18.0043V24.0064C25.464 24.537 25.6802 25.0459 26.0649 25.4211C26.4497 25.7964 26.9715 26.0071 27.5156 26.0071H30.08C31.0322 26.0071 31.9454 25.6383 32.6187 24.9816C33.292 24.325 33.6703 23.4345 33.6703 22.5059V19.5048C33.6703 18.5762 33.292 17.6857 32.6187 17.0291C31.9454 16.3725 31.0322 16.0036 30.08 16.0036Z" fill="white"/>
</svg>
