<svg width="194" height="192" viewBox="0 0 194 192" fill="none" xmlns="http://www.w3.org/2000/svg">
<path d="M77.3333 0H9.66667C3.86667 0 0 3.83333 0 9.58333V76.6667C0 82.4167 3.86667 86.25 9.66667 86.25H77.3333C83.1333 86.25 87 82.4167 87 76.6667V9.58333C87 3.83333 83.1333 0 77.3333 0ZM77.3333 105.417H9.66667C3.86667 105.417 0 109.25 0 115V182.083C0 187.833 3.86667 191.667 9.66667 191.667H77.3333C83.1333 191.667 87 187.833 87 182.083V115C87 109.25 83.1333 105.417 77.3333 105.417ZM183.667 0H116C110.2 0 106.333 3.83333 106.333 9.58333V76.6667C106.333 82.4167 110.2 86.25 116 86.25H183.667C189.467 86.25 193.333 82.4167 193.333 76.6667V9.58333C193.333 3.83333 189.467 0 183.667 0ZM183.667 105.417H116C110.2 105.417 106.333 109.25 106.333 115V182.083C106.333 187.833 110.2 191.667 116 191.667H183.667C189.467 191.667 193.333 187.833 193.333 182.083V115C193.333 109.25 189.467 105.417 183.667 105.417Z" fill="white"/>
</svg>
