<svg width="154" height="154" viewBox="0 0 154 154" fill="none" xmlns="http://www.w3.org/2000/svg">
<path d="M146.3 69.3C141.68 69.3 138.6 72.38 138.6 77C138.6 99.33 127.05 119.35 107.8 130.13C78.54 147.07 40.81 137.06 23.87 107.8C6.93 78.54 16.94 40.81 46.2 23.87C71.61 9.24 102.41 14.63 121.66 34.65H103.18C98.56 34.65 95.48 37.73 95.48 42.35C95.48 46.97 98.56 50.05 103.18 50.05H137.83C142.45 50.05 145.53 46.97 145.53 42.35V7.7C145.53 3.08 142.45 0 137.83 0C133.21 0 130.13 3.08 130.13 7.7V21.56C115.5 7.7 97.02 0 77 0C34.65 0 0 34.65 0 77C0 119.35 34.65 154 77 154C119.35 154 154 119.35 154 77C154 72.38 150.92 69.3 146.3 69.3Z" fill="white"/>
</svg>
