<svg width="367" height="367" viewBox="0 0 367 367" fill="none" xmlns="http://www.w3.org/2000/svg">
<path d="M361.787 338.217L267.2 243.629C288.482 217.068 300.054 184.035 300 150C300 67.1583 232.846 0 150 0C67.1583 0 0 67.1583 0 150C0 232.842 67.1583 300 150 300C185.417 300 217.967 287.725 243.629 267.196L338.217 361.783C339.762 363.333 341.599 364.563 343.621 365.401C345.643 366.239 347.811 366.669 350 366.667C353.296 366.667 356.518 365.689 359.259 363.858C362 362.027 364.136 359.425 365.398 356.379C366.66 353.334 366.99 349.983 366.347 346.75C365.705 343.518 364.118 340.548 361.787 338.217ZM150 266.667C85.5667 266.667 33.3333 214.433 33.3333 150C33.3333 85.5667 85.5667 33.3333 150 33.3333C214.437 33.3333 266.667 85.5667 266.667 150C266.667 214.433 214.437 266.667 150 266.667Z" fill="white"/>
</svg>
