<svg width="16" height="18" viewBox="0 0 16 18" fill="none" xmlns="http://www.w3.org/2000/svg">
    <g transform="rotate(180 8 9)">
        <path d="M7.59332 0C7.81495 0.000271765 8.02812 0.0940907 8.18928 0.262288C8.35044 0.430485 8.44742 0.660365 8.46041 0.904958C8.4734 1.14955 8.40141 1.3904 8.25916 1.57829C8.11692 1.76617 7.91514 1.88692 7.69506 1.91586L7.59332 1.92259H3.2456C3.03262 1.92262 2.82705 2.00906 2.6679 2.16552C2.50874 2.32198 2.40706 2.53758 2.38214 2.77141L2.37605 2.88388V14.4194C2.37608 14.6549 2.45427 14.8821 2.5958 15.0581C2.73733 15.234 2.93234 15.3464 3.14386 15.374L3.2456 15.3807H7.15855C7.38018 15.381 7.59335 15.4748 7.75451 15.643C7.91567 15.8112 8.01265 16.0411 8.02564 16.2857C8.03862 16.5303 7.96664 16.7711 7.82439 16.959C7.68214 17.1469 7.48036 17.2676 7.26029 17.2966L7.15855 17.3033H3.2456C2.58021 17.3034 1.93996 17.0223 1.45585 16.5177C0.971732 16.013 0.680347 15.3229 0.641311 14.5886L0.636963 14.4194V2.88388C0.636926 2.14829 0.891153 1.44049 1.34763 0.905289C1.8041 0.370092 2.42832 0.0479614 3.09256 0.00480659L3.2456 0H7.59332ZM12.5558 5.25252L15.0149 7.97202C15.1779 8.15229 15.2695 8.39675 15.2695 8.65166C15.2695 8.90656 15.1779 9.15102 15.0149 9.33129L12.5558 12.0508C12.3927 12.231 12.1714 12.3323 11.9407 12.3322C11.7101 12.3321 11.4889 12.2307 11.3258 12.0503C11.1628 11.8699 11.0712 11.6253 11.0713 11.3703C11.0714 11.1153 11.1631 10.8708 11.3263 10.6906L12.301 9.61295H7.59332C7.3627 9.61295 7.14153 9.51167 6.97846 9.33139C6.81539 9.15112 6.72378 8.90661 6.72378 8.65166C6.72378 8.3967 6.81539 8.15219 6.97846 7.97192C7.14153 7.79164 7.3627 7.69036 7.59332 7.69036H12.301L11.3263 6.61275C11.1631 6.4325 11.0714 6.18798 11.0713 5.93297C11.0712 5.67797 11.1628 5.43337 11.3258 5.253C11.4889 5.07262 11.7101 4.97123 11.9407 4.97114C12.1714 4.97105 12.3927 5.07227 12.5558 5.25252Z" fill="white"/>
    </g>
</svg>
