<svg width="3004" height="2640" viewBox="0 0 3004 2640" fill="none" xmlns="http://www.w3.org/2000/svg">
<path d="M1485.31 2238.99C980.472 2238.99 567.422 1825.44 567.422 1320C567.422 814.557 980.472 401.013 1485.31 401.013C1990.15 401.013 2403.2 814.557 2403.2 1320C2403.2 1825.44 1990.15 2238.99 1485.31 2238.99ZM1485.31 554.177C1064.61 554.177 720.404 898.798 720.404 1320C720.404 1741.2 1064.61 2085.82 1485.31 2085.82C1906.01 2085.82 2250.22 1741.2 2250.22 1320C2250.22 898.798 1906.01 554.177 1485.31 554.177Z" fill="white"/>
<path d="M1485.31 1626.33C1439.42 1626.33 1408.82 1595.7 1408.82 1549.75V1496.14C1408.82 1381.27 1470.01 1281.71 1561.8 1228.1C1622.99 1197.47 1653.59 1128.54 1638.29 1067.28C1630.64 1006.01 1577.1 952.405 1515.91 944.747C1470.01 937.089 1424.12 944.747 1385.87 975.38C1355.28 998.354 1332.33 1044.3 1332.33 1090.25C1332.33 1136.2 1301.73 1166.84 1255.84 1166.84C1209.94 1166.84 1179.35 1136.2 1179.35 1090.25C1179.35 998.354 1217.59 914.114 1286.44 852.848C1355.28 791.582 1447.07 768.608 1538.85 783.924C1661.24 806.899 1760.68 906.456 1783.63 1028.99C1806.57 1159.18 1745.38 1289.37 1630.64 1350.63C1584.75 1373.61 1561.8 1427.22 1561.8 1488.48V1549.75C1561.8 1595.7 1531.21 1626.33 1485.31 1626.33Z" fill="white"/>
<path d="M1485.31 1856.08C1527.56 1856.08 1561.8 1821.79 1561.8 1779.49C1561.8 1737.2 1527.56 1702.91 1485.31 1702.91C1443.07 1702.91 1408.82 1737.2 1408.82 1779.49C1408.82 1821.79 1443.07 1856.08 1485.31 1856.08Z" fill="white"/>
<path d="M1485.31 1894.37C1424.12 1894.37 1370.58 1840.76 1370.58 1779.49C1370.58 1718.23 1424.12 1664.62 1485.31 1664.62C1546.5 1664.62 1600.05 1718.23 1600.05 1779.49C1600.05 1840.76 1546.5 1894.37 1485.31 1894.37ZM1485.31 1741.2C1462.36 1741.2 1447.07 1756.52 1447.07 1779.49C1447.07 1802.47 1462.36 1817.78 1485.31 1817.78C1508.26 1817.78 1523.56 1802.47 1523.56 1779.49C1523.56 1756.52 1508.26 1741.2 1485.31 1741.2Z" fill="white"/>
</svg>
